<svg width="30" height="30" viewBox="0 0 30 30" fill="none" xmlns="http://www.w3.org/2000/svg">
<path d="M13.5807 20.9592C13.3884 20.9592 13.204 21.0356 13.0681 21.1716C12.9321 21.3075 12.8557 21.4919 12.8557 21.6842C12.8557 21.8765 12.9321 22.0609 13.0681 22.1969C13.204 22.3328 13.3884 22.4092 13.5807 22.4092H16.4807C16.673 22.4092 16.8574 22.3328 16.9934 22.1969C17.1293 22.0609 17.2057 21.8765 17.2057 21.6842C17.2057 21.4919 17.1293 21.3075 16.9934 21.1716C16.8574 21.0356 16.673 20.9592 16.4807 20.9592H13.5807Z" fill="#263057"/>
<path d="M10.6808 3.5592C9.91163 3.5592 9.17401 3.86474 8.63015 4.40859C8.0863 4.95245 7.78076 5.69008 7.78076 6.4592V23.8592C7.78076 24.6283 8.0863 25.366 8.63015 25.9098C9.17401 26.4537 9.91163 26.7592 10.6808 26.7592H19.3808C20.1499 26.7592 20.8875 26.4537 21.4314 25.9098C21.9752 25.366 22.2808 24.6283 22.2808 23.8592V6.4592C22.2808 5.69008 21.9752 4.95245 21.4314 4.40859C20.8875 3.86474 20.1499 3.5592 19.3808 3.5592H10.6808ZM9.23076 6.4592C9.23076 6.07464 9.38353 5.70583 9.65546 5.4339C9.92738 5.16197 10.2962 5.0092 10.6808 5.0092H19.3808C19.7653 5.0092 20.1341 5.16197 20.4061 5.4339C20.678 5.70583 20.8308 6.07464 20.8308 6.4592V23.8592C20.8308 24.2438 20.678 24.6126 20.4061 24.8845C20.1341 25.1564 19.7653 25.3092 19.3808 25.3092H10.6808C10.2962 25.3092 9.92738 25.1564 9.65546 24.8845C9.38353 24.6126 9.23076 24.2438 9.23076 23.8592V6.4592Z" fill="#263057"/>
</svg>
